<svg xmlns="http://www.w3.org/2000/svg" x="0" y="0" version="1.1" viewBox="0 0 1000 600" xml:space="preserve">
  <style>
    .st0,.st1,.st2,.st4,.st5{fill-rule:evenodd;clip-rule:evenodd;fill:#191947}.st1,.st2,.st4,.st5{fill:#d5a282}.st2,.st4,.st5{fill:#3c4ca0}.st4,.st5{fill:#e4e4e4}.st5{fill:#465caa}.st7{fill:#c5cfd6}.st11,.st7,.st8,.st9{fill-rule:evenodd;clip-rule:evenodd}.st8{fill-opacity:.1;fill:#010101}.st11,.st9{fill:#b28b68}.st11{fill:#dde3e9}
  </style>
  <g transform="translate(122 27)">
    <path id="Hair-Back" d="M50.67 91.18c2.95 10.86 6.79 35.27 2.87 39.1h-24.8c0-.04-.01-.09-.01-.13-9.19-1.02-16.34-8.81-16.34-18.27V93.92c0-10.15 8.23-18.38 18.38-18.38h1.71c9.23 0 16.87 6.79 18.19 15.64z" class="st0"/>
    <path id="Head" d="M-31.97 77.45c-3.94-4.62-6.61-10.29-6.16-16.64 1.28-18.3 26.76-14.27 31.71-5.04s4.37 32.66-2.04 34.31c-2.55.66-7.99-.95-13.53-4.29l3.48 24.59h-20.52l7.06-32.93z" class="st1" transform="translate(54 31)"/>
    <path id="Hair-Front" d="M27.58 105.36c.95 10.16.57 21.75-2.25 24.51H.53c-1.38-24 11.97-14.71 11.97-37.31.83-.81 1.62-1.62 2.4-2.31l-.03-.66c4.29-8.79 9.74-13.19 16.34-13.19 9.9 0 13.03 4.61 15.69 8.52-1.99 6.83-9.71 7.84-16.57 12.1a4.7 4.7 0 00-7.66 3.65c0 2.59 2.11 4.7 4.7 4.7.07-.01.14-.01.21-.01z" class="st0"/>
  </g>
  <g transform="translate(40 214)">
    <path id="Skirt-Shadow" d="M63.97 109.21c20.51 5.74 38.21 8.61 53.09 8.61s28.71-4.42 41.47-13.25c-20.07-5.89-36.6-8.83-49.59-8.83s-27.98 4.49-44.97 13.47z" class="st2"/>
    <path id="Leg" fill="#ba8b72" fill-rule="evenodd" d="M134.81 126.09c-.2-.3-.36-.62-.5-.97-2.74-7.25-46.66-85.47-51.03-99.77h49.44c3.33 10.87 18.3 79.11 20.41 92.72 6.65 21.47 20.34 91.02 22.08 95.84 1.84 5.07-8.5 10.35-11.26 4.12-4.39-9.91-14.83-37.35-19.49-54.1-4.35-15.71-7.91-29.84-9.65-37.84z" clip-rule="evenodd"/>
    <path d="M94.36 135.64C74.28 140.71.84 149.89-4.2 151.33c-5.18 1.48-9.73-9.21-3.32-11.52 10.2-3.68 38.29-12.19 55.33-15.67 13.7-2.79 26.2-5.07 34.6-6.41-.71-23.58-3.96-80.16-1.83-92.39h43.75c-2.04 11.72-19.32 97.23-22.53 105.79-1.02 3.06-4.06 4.41-7.44 4.51z" class="st1"/>
    <g transform="rotate(80 -54.135 84.925)">
      <path id="shoe" d="M5.28 47.59c-.96 2.55-1.43 4.46-1.43 5.73 0 1.54.26 3.79.77 6.75h48.23c1.25-4.14.53-6.38-2.17-6.71-2.7-.33-4.94-.63-6.73-.89l-22.41-9.99c-.43-.19-.94 0-1.13.43 0 .01-.01.01-.01.02l-1.44 3.5c-2.5 1.17-4.53 1.75-6.09 1.75-1.27 0-3.02-.51-5.26-1.54-.86-.39-1.87-.02-2.27.84-.03.03-.04.07-.06.11z" class="st4"/>
    </g>
    <path d="M-47.18 18.21c-.96 2.55-1.43 4.46-1.43 5.73 0 1.54.26 3.79.77 6.75H.39c1.25-4.14.53-6.38-2.17-6.71-2.7-.33-4.94-.63-6.73-.89l-22.41-9.99c-.43-.19-.94 0-1.13.43 0 .01-.01.01-.01.02l-1.44 3.5c-2.5 1.17-4.53 1.75-6.09 1.75-1.27 0-3.02-.51-5.26-1.54-.86-.39-1.87-.02-2.27.84-.03.04-.05.08-.06.11z" class="st4" transform="translate(208 199)"/>
    <path id="Skirt" d="M80.72 25.34c19.28-5.52 37.52-5.52 54.72 0 5.99 27.31 20.53 38.15 23.09 80.01-29.07 14.44-64.98-10.3-94.91 3.78-8.55-19.69 3.42-67.14 17.1-83.79z" class="st5"/>
  </g>
  <g transform="translate(62 109)">
    <path id="Skin" d="M141.66 96.41l33.76-4.6c6.75-3.76 12.97-6.3 18.64-7.63 1.6-.05 4.14.53.35 3.69-3.78 3.15-7.62 6.64-6.95 8.32.67 1.68 4.19 1.06 4.77 3.65.39 1.73-5.32 2.01-17.13.84l-27.39 10.86-6.05-15.13zm-106.05 7.81l18.72.07c-20.53 46.2-31.23 70.39-32.11 72.57-1.98 4.9 2.21 12.37 4 16.38-5.83 2.61-5.21-7.05-12.57-3.63-6.71 3.12-11.82 8.78-19.58 4-.95-.59-2-2.8.53-4.54 6.29-4.31 15.36-11.86 16.58-14.35 1.67-3.38 9.81-26.88 24.43-70.5z" class="st1"/>
    <path id="Clothes-Back" fill="#b0bac5" fill-rule="evenodd" d="M86.89 44.84l14.66.98c3.61 32.66 23.28 53.29 67.31 46.31l5.85 42.06c-41.15 5.32-77.24-11.16-84.64-55.77-1.92-11.54-3.43-23.56-3.18-33.58z" clip-rule="evenodd"/>
    <path id="Clothes" d="M79.66 40.58l22.21 5.09c0 38.2 12.17 62.58 18.41 90.66H60.3c-.85 9.71-1.36 19.68-1.63 29.93H13.75C23.92 112.1 45.41 70.2 78.19 40.57h1.45l.02.01z" class="st7"/>
    <path id="Shade" d="M69.76 81.83c-1.55 23.81-.64 41.97 2.73 54.5H60.3c1.67-19.23 4.62-37.39 9.46-54.5z" class="st8"/>
  </g>
  <g id="humaaan-8">
    <g transform="translate(119.44 18)">
      <path id="Head_1_" d="M180.1 100.87c-4.81-5.64-8.06-12.55-7.51-20.3 1.57-22.32 32.63-17.41 38.68-6.14s5.33 39.84-2.49 41.85c-3.11.8-9.75-1.16-16.5-5.23l4.24 29.99h-25.03l8.61-40.17z" class="st9" transform="translate(56.316 32.33)"/>
      <path id="hair" d="M278.67 91.14c-.52-1.82-1.91-3.38-3.79-3.84-.46-.11-.93-.16-1.39-.14-.17.01-.22.06-.29-.06-.06-.09-.06-.3-.08-.4-.07-.32-.17-.63-.28-.94-.39-1.05-1.05-1.97-1.85-2.75-1.49-1.46-3.5-2.46-5.59-2.65-1.14-.1-2.28.09-3.36.46-.56.19-1.1.43-1.63.7-.16.08-.68.47-.84.45-.18-.03-.53-.47-.67-.58-1.77-1.36-3.97-1.9-6.18-1.88-2.49.02-4.9.14-6.98 1.66-.44.32-.86.67-1.26 1.05-.21.2-.41.4-.61.61-.12.13-.23.26-.34.39-.19.23-.16.3-.42.14-1-.61-2.16-.89-3.33-.75-.69.09-1.37.29-2.01.57-.22.09-.72.47-.96.47-.23 0-.73-.34-.97-.43a7.963 7.963 0 00-4.02-.37c-1.39.23-2.76.78-3.94 1.55-.57.37-1.06.78-1.46 1.33-.17.24-.33.49-.52.71-.11.13-.34.26-.4.42.04-.1-1.52-.7-1.67-.74a4.18 4.18 0 00-2.35.09c-1.44.47-2.68 1.54-3.7 2.63-.52.56-.98 1.18-1.37 1.84a10 10 0 00-.51.97c-.08.16-.13.36-.23.51-.13.19-.21.19-.45.27-1.18.41-2.26 1.11-3.08 2.06-.83.96-1.37 2.14-1.59 3.38-.01.07-.02.38-.06.42-.06.05-.3.03-.39.04-.31.04-.62.09-.92.16-.56.13-1.11.33-1.63.58-2.02 1-3.46 2.87-4.17 4.97-.74 2.21-.73 4.74.16 6.91.14.35.31.69.51 1.01.12.2.16.2.08.4-.09.23-.25.45-.36.68-.34.73-.58 1.51-.74 2.31-.25 1.31-.37 2.68-.13 3.99.11.61.31 1.21.62 1.75a4.708 4.708 0 00.88 1.14c.07.07.16.12.21.2.14.18.17.03.1.3-.1.37-.33.73-.47 1.09-.14.37-.27.75-.39 1.12-.24.77-.45 1.55-.57 2.34-.25 1.53-.2 3.15.52 4.55a4.531 4.531 0 002.14 2.04c.15.07.35.1.42.25.08.16-.04.48-.06.65-.22 1.55-.33 3.18.13 4.7.42 1.4 1.36 2.64 2.58 3.46 2.36 1.59 5.53 1.5 8.01.23.65-.33 1.25-.74 1.79-1.23 1.37 1.85 4.19 1.79 6.2 1.26 2.5-.66 4.5-2.39 5.66-4.67 1.58 1.92 4.89 1.3 5.99-.79.27-.51.43-1.07.51-1.64.04-.3.01-.6.05-.9.04-.38.29-.75.44-1.11.28-.71.46-1.45.47-2.22 0-.4-.05-.79-.09-1.19-.03-.36.07-.69.12-1.05-.64.11-1.42-.07-2.02-.25-.59-.18-1.15-.66-1.56-1.1-.97-1.02-1.56-2.35-1.97-3.68-.89-2.92-.53-6.41 2.41-8.01 1.37-.75 5.46-.74 7.08-.37 1.71.39 3.65 4.16 3.75 4.52.06.22.03.49.23.64.44.32 1.17-.24 1.5-.51.56-.48.97-1.11 1.32-1.75.76-1.4 1.37-2.9 1.8-4.43.33-1.18.55-2.4.98-3.54.43-1.14 1.12-2.17 2.18-2.81 1.16-.7 2.48-1.08 3.75-1.52 1.26-.44 2.49-.98 3.47-1.91.21-.2.42-.42.6-.66.14-.19.27-.55.48-.68.32-.19.79.3 1.07.48 1.38.87 2.53 2.09 3.45 3.43.92 1.33 1.68 2.6 2.29 4.08.46 1.1.74 2.5 1.54 3.4.36.4 3.02.64 3.88.29.86-.35 1.83-1.26 2.12-1.83.3-.58.37-1.23.24-1.86-.07-.38-.23-.73-.31-1.1-.07-.31-.13-.6-.28-.89-.29-.54-.78-.93-1.37-1.09.61-.57 1.12-1.24 1.47-2 .37-.79.68-1.74.76-2.61.07-.7-.04-1.43-.42-2.03-.4-.63-1.12-1.04-1.73-1.44.94-.74 1.75-1.63 2.41-2.63 1.25-1.88 2.05-4.31 1.39-6.62z" class="st0"/>
    </g>
    <g transform="translate(34 212.764)">
      <path id="Leg_1_" d="M304.98 64.9l50.14 132.69 35.15 97.79h20.04L362 64.9z" class="st2"/>
      <path d="M292.58 64.9c-.55 45.53-.15 106.82-1.42 109.66-.85 1.89-27.18 23.45-79 64.67l10.33 17.57c61.53-39.68 93.86-62.16 97.01-67.44 4.72-7.93 28.42-80.89 40.76-124.45h-67.68z" class="st5"/>
      <g transform="rotate(50 -143.618 138.057)">
        <path id="Shoe" d="M159.95-47.93l1.04-21.9h21.9c10.38 7.3 23.94 13.21 40.67 17.73v4.17h-39.63l-13.56-2.09v2.09h-10.42z" class="st0"/>
      </g>
      <path d="M171.49 106.62l1.04-21.9h21.9c10.38 7.3 23.94 13.21 40.67 17.73v4.17h-39.63l-13.56-2.09v2.09h-10.42z" class="st0" transform="translate(216.922 207.536)"/>
    </g>
    <g transform="translate(56.923 103.404)">
      <path id="Skin_1_" d="M370.45 161.07l33.27 24.43c9.02 2.43 16.56 5.46 22.61 9.09 1.43 1.3 3.16 3.94-2.77 3.49-5.93-.46-12.19-.67-13.01 1.35-.82 2.02 2.77 4.44 1.12 7.17-1.1 1.82-6.31-2.74-15.63-13.69l-32.94-13.66 7.35-18.18zm-127.73.84l21.79.09c-13.46 43.44-20.72 66.49-21.79 69.15-2.41 5.98 2.69 15.09 4.88 19.98-7.11 3.18-6.35-8.6-15.33-4.43-8.19 3.81-14.42 10.71-23.88 4.88-1.16-.72-2.44-3.42.64-5.53 7.67-5.26 18.73-14.47 20.23-17.5 2.04-4.14 6.53-26.35 13.46-66.64z" class="st9"/>
      <path id="Coat-Back" fill="#e87725" fill-rule="evenodd" d="M304.66 70.47l9.02-1.55c33.46 28.9 47.2 84.43 88.22 113.85L392.02 195c-71.15-8.81-88.78-76.54-87.36-124.53z" clip-rule="evenodd"/>
      <path id="Shirt" d="M265.35 183.79h79.79c3.65 0 2.96-5.26 2.43-7.92-6.08-30.66-29.83-63.71-29.83-107.36l-23.02-3.61c-19.03 30.62-25.61 68.32-29.37 118.89z" class="st11"/>
      <path id="Coat-Front" fill="#f99b26" fill-rule="evenodd" d="M265.99 95c-3.34-.96-5.99-3.2-7.94-6.72-8.41-15.18-5.37-23.54 3.62-26.28 8.99-2.75 17.01 2.91 31.33 2.91.78 0 1.49.05 2.14.15l7.21.41c20.67 70.06 26.37 116.81 17.1 140.23h-62.8c-3.72 8.68-7.28 15.98-10.68 21.9h-17.11c-1.62-52.08 10.76-96.28 37.13-132.6z" clip-rule="evenodd"/>
      <path id="Shade_1_" d="M270.32 169.71c1.98 16.53 5.19 28.52 9.63 35.98h-23.31c4.34-10.12 8.9-22.11 13.68-35.98z" class="st8"/>
    </g>
  </g>
  <g transform="matrix(-1 0 0 1 258 24)">
    <path id="Head_2_" d="M-437.6 160.39c-4.61-5.41-7.73-12.04-7.21-19.46 1.5-21.4 31.29-16.69 37.09-5.89 5.79 10.8 5.11 38.2-2.38 40.13-2.99.77-9.35-1.12-15.82-5.02l4.06 28.76h-24l8.26-38.52z" class="st9" transform="translate(54 31)"/>
    <g id="Hijab" fill-rule="evenodd" clip-rule="evenodd" transform="translate(36 28)">
      <path id="Front" fill="#2d2d2c" d="M-395.13 130.91c-.55-.33-1.7-1.02-2.28-1.27-.14-.06-1.1-.75-1.13-.74-.73.25-2.85 1.16-3.03 1.94l-.08.16c-.3.55-.58 1.1-.84 1.67-.58 1.24-1.07 2.54-1.55 3.83-.93 2.51-1.73 5.07-2.47 7.64-.75 2.62-1.39 5.27-2.11 7.89-1.03 3.78-2.34 7.47-3.37 11.25-.65 2.41-1.01 4.86-.84 7.34 0 .03 0 .06.01.09v.04c.03.38.07.76.13 1.15l.15.99c.93-1.86 1.65-3.91 2.4-5.86l.21-.57c.24-.39.49-.79.74-1.18 1.58-2.46 3.18-4.91 4.7-7.42 2.73-4.51 5.44-9.11 8.68-13.25.96-1.22 1.94-2.43 2.88-3.66.54-.7 1.06-1.41 1.57-2.14.36-.52 1.94-2.33 1.37-3.41-.29-.54-3.72-3.64-5.14-4.49z"/>
      <path id="Turban" fill="#8b91c7" d="M-397.24 129.73c.53.18.27-.93-.24-1.32-2.4-1.81-11.57-2.47-19.55-.82-5.35 1.11-11.56 3.87-15.84 7.42-3.85 3.2-6.5 8.33-7.86 13.29-1.43 5.21-1.65 10.63-.85 15.97.18 1.17.55 2.29.76 3.44.24 1.29.36 2.54.78 3.79.26.77.7 1.52.92 2.3.25.88.1 1.7-.09 2.6-.3 1.46-.67 2.93-1.19 4.33-.79 2.1-1.75 4.07-2.35 6.25-.8 2.9-4.14 12.34-1.7 14.91h46.52c-1.17-3.2-4.69-6.96-5.4-10.38-.42-2.01-.62-6.42-.66-6.58-1.05-7.23-3.1-10.68-4.38-11.93s-2.99-1.64-3.08-2.72c-.36-4.49 1.42-8.8 2.73-12.99 1.56-5 2.71-10.12 4.32-15.1.71-2.19 4.38-13.39 7.16-12.46z"/>
      <path id="Shade_4_" fill="#010101" fill-opacity=".2" d="M-413.55 134.9c-1.75 5.57-2.13 8.54-1.75 16.14h-.86c-1.61-7.18-.18-13.93 1.53-16.14h1.08zm-23.54 14.36c3.27 7.93 4.76 12.62 13.89 19.03l-.7.49c-9.06-5.14-11.7-11.26-13.87-19.2l.68-.32zm13.44-8.07c1.48 11.26 1.92 17.69 9.65 30.01l-.82.25c-7.96-10.72-9.22-19.48-9.6-30.2l.77-.06zm-8.55 33.45l.7-.86c9.61 3.01 8.54 9.22 20.64 15.51l-1.01.61c-10.59-4.37-13.07-13.74-20.33-15.26z"/>
    </g>
  </g>
  <g transform="matrix(-1 0 0 1 340 211)">
    <g transform="translate(10 42)">
      <g id="Seat" transform="translate(55)">
        <path id="Seat-Stuff" d="M-418.24 125.9h77.25l10.12 124h-115z" class="st7"/>
        <path d="M-418.24 125.9h23.76l14.22 124h-65.61z" class="st8"/>
      </g>
    </g>
    <path id="Skin_2_" d="M-187.91 146.66c8.24-4.95 22.06 1.41 22.05 8.48-.03 21.16-19.34 120.91-20.35 127.22-1.01 6.31-11.81 7.97-12.44.02-1-12.65-2.86-56.44-1-76.71.77-8.37 1.6-16.34 2.41-23.45-10.14 18.3-25.81 44.51-47.02 78.62l-11.52-5.26c9.04-29.8 16.46-50.83 22.25-63.11 9.91-21.02 19.2-39.01 23.11-45.35 6.14-9.98 16.85-6.5 22.51-.46z" class="st9"/>
    <path id="LegLower" d="M-254.97 239.03l39.53-93.64c9.47-15.23 36.02 3.1 32.79 11.93-7.33 20.06-44.62 84.99-46.8 90.97l-25.52-9.26z" class="st2"/>
    <g transform="rotate(30 -87.86 421.715)">
      <path id="shoe_1_" d="M-320.5 357.37c-1.12 2.99-1.68 5.22-1.68 6.7 0 1.8.3 4.43.9 7.89h56.4c1.47-4.85.62-7.46-2.54-7.85s-5.78-.74-7.87-1.05l-26.22-11.69a1 1 0 00-1.32.51c0 .01-.01.02-.01.03l-1.69 4.09c-2.92 1.36-5.3 2.05-7.13 2.05-1.48 0-3.54-.6-6.15-1.8-1-.46-2.19-.02-2.65.98-.01.05-.03.09-.04.14z" class="st4"/>
    </g>
    <path d="M-443.19 151.3c-1.12 2.99-1.68 5.22-1.68 6.7 0 1.8.3 4.43.9 7.89h56.4c1.47-4.85.62-7.46-2.54-7.85-3.16-.39-5.78-.74-7.87-1.05l-26.22-11.69a1 1 0 00-1.32.51c0 .01-.01.02-.01.03l-1.69 4.09c-2.92 1.36-5.3 2.05-7.13 2.05-1.48 0-3.54-.6-6.15-1.8-1-.46-2.19-.02-2.65.98 0 .05-.02.1-.04.14z" class="st4" transform="translate(242 126)"/>
    <path id="Leg-and-Butt" d="M-163.1 162.33c0 26.57-12.62 88.54-12.62 94.39l-27.15.02c3.97-55.3 5.38-83.24 4.23-83.84-1.73-.89-71.05 6.92-91.84 6.92-29.98 0-42.38-18.9-43.39-53.93h59.39c12.09 1.29 75.16 14.02 98.59 18.39 10.02 1.88 12.79 10.73 12.79 18.05z" class="st5"/>
  </g>
  <g transform="matrix(-1 0 0 1 318 106)">
    <path d="M-246.37 218.36l28.33 27.64c8.24 3.52 15 7.4 20.26 11.65 1.18 1.43 2.47 4.16-3.1 2.94-5.57-1.22-11.48-2.26-12.53-.45-1.05 1.81 2.04 4.59.1 6.96-1.29 1.58-5.63-3.45-13.01-15.08l-29.46-17.37 9.41-16.29zm-138.53-25.01l21.9.08c-16.68 54.03-25.53 82.33-26.56 84.87-2.31 5.73 2.58 14.47 4.68 19.16-6.82 3.05-6.09-8.25-14.7-4.25-7.85 3.65-13.83 10.27-22.9 4.67-1.12-.69-2.34-3.28.62-5.3 7.36-5.05 17.96-13.88 19.39-16.78 1.95-3.96 7.81-31.44 17.57-82.45z" class="st9"/>
    <path id="Clothes-Back_1_" fill="#db2a27" fill-rule="evenodd" d="M-318.17 131.23l8.65-1.48c13.62 48.15 83.61 80.97 87.91 98.97 1.58 6.6-3.18 9.94-.72 11.95l-11.24 8.23c-1.9-2.22-5.97 1.84-14.45-1-8.49-2.84-70.15-59.65-70.15-116.67z" clip-rule="evenodd"/>
    <path id="Clothes-Front" fill="#ef4639" fill-rule="evenodd" d="M-303.63 137.63c-1 63.75 35.86 80.01 27.65 105.58-6.78 21.12-71.66 43.82-82.89 23.12-4.54-8.38-6.61-18.51-6.84-29.53-2.87 8.46-5.14 15.75-6.81 21.86-2.88 10.54-14.04 12.22-14.04 16.28l-14.71-4.06c1-5.52-5.94-8.2-4.08-20.53 8.33-55.22 30.71-95.24 67.15-120.08l.38-5.39c.15-2.2 2.07-3.87 4.27-3.71l26.93 1.88c2.2.15 3.87 2.07 3.71 4.27l-.72 10.31z" clip-rule="evenodd"/>
  </g>
  <g>
    <g transform="translate(122 27)">
      <path id="Head_3_" d="M669.12 112.4h-26.27l4.45-31.47c-7.09 4.27-14.05 6.34-17.32 5.49-8.2-2.11-8.95-32.1-2.61-43.92s38.95-16.98 40.59 6.45c.57 8.13-2.84 15.38-7.89 21.31l9.05 42.14z" class="st9" transform="translate(54 31)"/>
      <path id="Hair" d="M692.7 75.07c-11.55.18-12.9-1.89-12.9-8.87 1.87-1.33 8.45-3.58 15.82-4.21 3.76-1.08 8.21-.87 12.51.92 5.3 1.5 9.78 4.74 11.76 10.8 7.17 12.37 1.73 25.25-5.6 29.64a98.298 98.298 0 01-5.17-6.7 6.568 6.568 0 00-4.59-11.27c-.27 0-.53.02-.78.05-.39 12.75-1.26 21.15-2.6 25.21-2.08 6.28-14.22 7.83-18.45 7.83-4.18 0-3.42-4.53-3.42-6.94 0-1.46 4.36.44 4.36-2.01 0-2.46-5.51-3.98-6.65-5.57-1.37-1.92-1.83-4.51.24-4.51 2.84 0 8.33 4.11 14.8 4.11 4.31 0 6.97-7 7.98-21.01-2.29-3.39-4.47-5.97-7.31-7.47z" class="st0"/>
    </g>
    <g transform="translate(40 214)">
      <path id="Leg_2_" d="M754.89 47.25l-30.76 241.9h21.11l28.96-102.64 39.68-139.26z" class="st0"/>
      <path fill="#2f3776" fill-rule="evenodd" d="M754.77 47.25c19.42 68.67 32.31 107.81 36.49 117.44 4.18 9.63 24.2 51.11 60.08 124.45h21.88c-28.18-76.45-42.75-117.93-43.72-124.45-.96-6.52-4.09-45.67-5.01-117.44h-69.72z" clip-rule="evenodd"/>
      <g transform="translate(72 199)">
        <path id="Shoe_1_" d="M792.23 109.85v-2.19L778 109.85h-41.59v-4.38c17.56-4.74 31.79-10.95 42.69-18.61h22.99l1.09 22.99h-10.95z" class="st0"/>
      </g>
      <path d="M549.26 109.85v-2.19l-14.23 2.19h-41.59v-4.38c17.56-4.74 31.79-10.95 42.69-18.61h22.99l1.09 22.99h-10.95z" class="st0" transform="translate(188 199)"/>
    </g>
    <g transform="translate(62 109)">
      <path id="Skin_3_" d="M708.58 152.81l-33.49 16.71c-8.95 12.14-14.07 17.3-15.36 15.47-1.93-2.74 1.65-5.53.64-7.59-1-2.06-7.54-1.38-13.72-.47s-4.56-1.98-3.16-3.45c6.07-4.24 13.74-7.96 23.01-11.17l33.04-28.01 9.04 18.51zm168.28 39.16c2 2.93 14.83 10.89 23.58 15.24 3.51 1.75 2.58 4.74 1.48 5.66-8.98 7.45-16.46 1.18-25.53-1.58-9.93-3.03-7.43 9.11-15.28 6.84 1.55-5.41 5.53-15.62 2.15-21.48-1.5-2.61-12.66-26.48-33.47-71.63l19.39-2.82c15.72 42.51 24.96 65.77 27.68 69.77z" class="st9"/>
      <path id="Coat-Back_1_" d="M768.13 100.98c-13.71 31.54-47.49 47.87-83.17 68.89l-10.04-17.32c40.6-33.27 64.91-72.65 81.2-113.36l12.01 3.97c.38 12.66 4.6 47.23 0 57.82z" class="st7"/>
      <path id="Shirt_1_" fill="#333437" fill-rule="evenodd" d="M773.27 39.92c-8.11 1.15-13.79.9-17.03-.74 0 30.09-12.12 67.89-29.8 111.21-1.14 2.78-.75 6.88 1.7 7.33 19.76 3.65 46.84 3.65 81.26 0-4.31-51.21-14.33-86.79-36.13-117.8z" clip-rule="evenodd"/>
      <path id="Coat-Front_1_" d="M778.66 36.76c.3.19.59.38.89.57h.8c.1.24.21.48.31.72 48.3 31.43 80.2 80.58 95.72 147.46l-20.87 5.36c-12.69-37.32-27.56-63.78-44.63-79.4 19.3 50.74 38.36 111.38 40.78 161.86H740.23c20.59-55.1 27.27-223.55 29.38-235.99h9.08l-.03-.58z" class="st11"/>
    </g>
  </g>
</svg>

